<?xml version="1.0" standalone="no"?>
<!DOCTYPE svg PUBLIC "-//W3C//DTD SVG 20010904//EN"
 "http://www.w3.org/TR/2001/REC-SVG-20010904/DTD/svg10.dtd">
<svg version="1.0" xmlns="http://www.w3.org/2000/svg"
 width="862.000000pt" height="1280.000000pt" viewBox="0 0 862.000000 1280.000000"
 preserveAspectRatio="xMidYMid meet">
<metadata>
Created by potrace 1.15, written by Peter Selinger 2001-2017
</metadata>
<g transform="translate(0.000000,1280.000000) scale(0.100000,-0.100000)"
fill="#ffffff" stroke="none">
<path d="M2950 11080 c0 -946 -3 -1720 -6 -1720 -4 0 -17 11 -30 25 -26 28
-71 33 -81 10 -3 -9 4 -39 16 -67 11 -28 21 -61 21 -73 0 -12 7 -29 16 -36 12
-10 15 -24 10 -56 -8 -58 10 -274 34 -413 18 -105 20 -161 20 -626 l0 -510
-29 -85 c-41 -120 -87 -224 -97 -222 -57 10 -190 24 -324 33 -424 27 -538 44
-705 105 -138 50 -225 65 -370 65 l-126 0 -15 35 c-14 35 -17 146 -5 196 3 15
26 42 50 60 25 19 61 63 84 102 36 60 43 67 72 67 137 0 191 238 68 299 -46
23 -43 59 11 162 52 99 69 154 92 306 24 161 17 311 -19 385 -34 70 -110 141
-190 179 -80 37 -212 57 -268 40 -31 -9 -56 -9 -121 3 -135 24 -217 28 -313
16 -147 -20 -248 -66 -348 -159 -95 -88 -136 -171 -207 -420 -21 -75 -59 -208
-85 -296 -134 -462 -137 -840 -10 -1256 l35 -116 -19 -46 c-32 -75 -70 -244
-85 -382 -23 -203 -30 -525 -15 -720 7 -93 13 -260 14 -370 1 -134 5 -207 13
-222 30 -54 52 -201 121 -794 61 -521 78 -635 116 -807 61 -272 63 -321 28
-669 -20 -192 -14 -215 60 -259 34 -21 47 -37 61 -77 30 -83 97 -132 133 -96
9 9 21 -7 47 -59 41 -82 59 -102 91 -102 36 0 38 29 11 113 -34 103 -57 265
-54 367 l3 85 31 -55 c38 -67 89 -123 106 -117 33 11 -17 324 -92 574 -45 152
-80 291 -92 368 -7 43 -12 231 -12 490 -2 448 -10 546 -76 940 -20 115 -38
345 -28 345 9 0 244 -243 348 -360 240 -269 372 -455 453 -637 49 -111 67
-204 78 -403 5 -102 13 -207 18 -235 46 -255 126 -420 265 -553 89 -85 196
-140 341 -178 88 -24 120 -27 265 -27 167 0 259 11 435 53 44 10 118 20 165
21 l85 2 3 -1651 2 -1652 140 0 140 0 0 1660 c0 913 1 1660 3 1660 34 1 360
45 445 60 304 55 651 154 860 246 l53 23 30 -64 c17 -35 48 -137 70 -226 49
-199 86 -279 178 -381 37 -43 92 -117 121 -166 45 -76 56 -88 81 -90 45 -4 66
26 74 103 10 86 -1 171 -31 261 -41 122 -85 474 -59 474 5 0 57 -9 115 -20
177 -35 346 -50 550 -50 366 1 636 59 930 202 153 74 242 95 332 79 40 -7 72
-20 95 -38 105 -85 159 -104 308 -107 93 -2 107 -5 195 -43 86 -37 149 -70
251 -132 35 -20 38 -21 54 -5 15 16 12 19 -50 55 -88 51 -275 179 -275 188 0
9 144 77 190 90 99 28 154 29 292 6 112 -19 219 -9 273 25 16 11 60 35 98 55
87 46 142 96 174 159 21 42 26 67 28 138 2 68 -1 91 -13 100 -25 21 -191 14
-357 -16 -357 -63 -1284 -144 -1510 -132 -173 9 -838 102 -1006 140 -141 32
-283 47 -500 53 l-226 6 -6 186 c-4 102 -12 314 -17 471 -6 157 -14 429 -20
605 -11 348 -22 435 -76 573 -101 258 -330 404 -609 390 -153 -8 -276 -70
-420 -213 -175 -172 -333 -410 -506 -760 l-119 -240 0 810 c0 782 1 812 20
875 24 78 56 257 70 395 19 184 24 613 11 903 -13 288 -10 341 25 432 23 61
23 211 -1 310 -10 41 -21 118 -25 171 -9 112 -35 183 -74 201 l-26 11 0 1684
0 1683 -140 0 -140 0 0 -1720z m-1385 -2843 c46 -46 54 -102 23 -164 -26 -53
-57 -78 -107 -87 -29 -5 -32 -4 -26 12 5 9 20 74 34 144 14 70 30 128 35 128
4 0 23 -15 41 -33z m983 -1487 c79 -5 203 -6 273 -3 l129 6 0 -1016 0 -1016
-82 -90 -82 -90 -59 92 c-75 116 -218 301 -337 437 -171 195 -200 278 -220
621 -11 197 -31 306 -70 371 l-21 36 53 0 c29 0 73 3 98 7 124 21 235 130 296
292 14 36 31 75 39 87 8 11 15 33 15 48 0 30 -8 37 -207 179 -62 44 -113 81
-113 83 0 1 32 -6 71 -16 40 -10 137 -22 217 -28z m1819 -2018 c58 -90 121
-197 141 -239 35 -74 35 -77 19 -105 -9 -16 -17 -41 -17 -54 0 -13 -3 -24 -7
-24 -5 0 -60 11 -123 24 -63 14 -175 34 -248 44 -73 11 -134 21 -136 23 -2 2
14 49 35 104 41 103 140 396 160 469 l11 41 30 -60 c17 -33 78 -133 135 -223z"/>
</g>
</svg>
